# xmcd
#
# Track frame offsets:
#	150
#	13930
#	29792
#	41822
#	59382
#	73340
#	90352
#	104587
#	118607
#	141327
#	158652
#	178837
#	199877
#	229180
#	252592
#
# Disc length: 3779
#
# Revision: 1
# Processed by: cddbd v1.5.1PL0 Copyright (c) Steve Scherf et al.
# Submitted via: CDex 1.50Beta7
# Normalized: r0:DSETVAR1
#
DISCID=e50ec10f
DTITLE=Various Artist - A 2-Hour Jazz Special CD1
DYEAR=1996
DGENRE=Jazz
TTITLE0=Louis Armstrong - Perdido Street Blues
TTITLE1=Fats Waller - I'm Gonna Sit Right Down And Write Myself A Letter
TTITLE2=Lionel Hampton - Jivin' With Jarvis
TTITLE3=Count Basie Orchestra - Countin' The Blues
TTITLE4=Billie Holiday - Time On My Hands
TTITLE5=Benny Goodman Quartet - All The Things You Are
TTITLE6=Duke Ellington Orchestra - A Portait Of Bert Williams
TTITLE7=Ben Webster Quartet - The Theme
TTITLE8=Woody Herman Orchestra - The Preacher
TTITLE9=Ramsey Lewis - Wade In The Water
TTITLE10=Barney Kessel Trio - Old Devil Moon
TTITLE11=Stan Kenton Orchestra - Tenderly
TTITLE12=Thelonious Monk - Epistrophy
TTITLE13=Art Blakey Quintet - Transfiguration
TTITLE14=Charles Mingus - Body And Soul
EXTD=YEAR: 1996
EXTT0=
EXTT1=
EXTT2=
EXTT3=
EXTT4=
EXTT5=
EXTT6=
EXTT7=
EXTT8=
EXTT9=
EXTT10=
EXTT11=
EXTT12=
EXTT13=
EXTT14=
PLAYORDER=
